<mxfile host="app.diagrams.net" agent="Mozilla/5.0 (Windows NT 10.0; Win64; x64) AppleWebKit/537.36 (KHTML, like Gecko) Chrome/134.0.0.0 Safari/537.36" version="26.1.0">
  <diagram name="Page-1" id="MGbGOJlZ0QZc3c2tZgbi">
    <mxGraphModel dx="662" dy="268" grid="1" gridSize="10" guides="1" tooltips="1" connect="1" arrows="1" fold="1" page="1" pageScale="1" pageWidth="850" pageHeight="1100" math="0" shadow="0">
      <root>
        <mxCell id="0" />
        <mxCell id="1" parent="0" />
        <mxCell id="8-LCTLt67aeW98qTrsTD-1" value="" style="rounded=1;whiteSpace=wrap;html=1;" vertex="1" parent="1">
          <mxGeometry x="220" y="90" width="345" height="260" as="geometry" />
        </mxCell>
        <mxCell id="8-LCTLt67aeW98qTrsTD-2" value="" style="endArrow=none;html=1;rounded=0;exitX=-0.01;exitY=0.326;exitDx=0;exitDy=0;exitPerimeter=0;entryX=0.995;entryY=0.331;entryDx=0;entryDy=0;entryPerimeter=0;" edge="1" parent="1">
          <mxGeometry width="50" height="50" relative="1" as="geometry">
            <mxPoint x="218.27" y="174.76000000000002" as="sourcePoint" />
            <mxPoint x="564.995" y="176.06" as="targetPoint" />
          </mxGeometry>
        </mxCell>
        <mxCell id="8-LCTLt67aeW98qTrsTD-4" value="" style="endArrow=none;html=1;rounded=0;exitX=-0.003;exitY=0.666;exitDx=0;exitDy=0;entryX=1;entryY=0.673;entryDx=0;entryDy=0;exitPerimeter=0;entryPerimeter=0;" edge="1" parent="1" source="8-LCTLt67aeW98qTrsTD-1" target="8-LCTLt67aeW98qTrsTD-1">
          <mxGeometry width="50" height="50" relative="1" as="geometry">
            <mxPoint x="330" y="280" as="sourcePoint" />
            <mxPoint x="380" y="230" as="targetPoint" />
          </mxGeometry>
        </mxCell>
      </root>
    </mxGraphModel>
  </diagram>
</mxfile>
